<?xml version="1.0" encoding="UTF-8" standalone="no"?>
<!-- Created with Inkscape (http://www.inkscape.org/) -->

<svg
   xmlns:dc="http://purl.org/dc/elements/1.1/"
   xmlns:cc="http://creativecommons.org/ns#"
   xmlns:rdf="http://www.w3.org/1999/02/22-rdf-syntax-ns#"
   xmlns:svg="http://www.w3.org/2000/svg"
   xmlns="http://www.w3.org/2000/svg"
   xmlns:sodipodi="http://sodipodi.sourceforge.net/DTD/sodipodi-0.dtd"
   xmlns:inkscape="http://www.inkscape.org/namespaces/inkscape"
   width="493"
   height="493"
   id="svg3960"
   version="1.1"
   inkscape:version="0.48.4 r9939"
   sodipodi:docname="OXS_Logo.svg">
  <defs
     id="defs3962" />
  <sodipodi:namedview
     id="base"
     pagecolor="#ffffff"
     bordercolor="#666666"
     borderopacity="1.0"
     inkscape:pageopacity="0.0"
     inkscape:pageshadow="2"
     inkscape:zoom="0.7"
     inkscape:cx="200.03648"
     inkscape:cy="196.04364"
     inkscape:document-units="px"
     inkscape:current-layer="layer1"
     showgrid="false"
     inkscape:window-width="1189"
     inkscape:window-height="694"
     inkscape:window-x="242"
     inkscape:window-y="242"
     inkscape:window-maximized="0"
     fit-margin-top="0"
     fit-margin-left="0"
     fit-margin-right="0"
     fit-margin-bottom="0" />
  <metadata
     id="metadata3965">
    <rdf:RDF>
      <cc:Work
         rdf:about="">
        <dc:format>image/svg+xml</dc:format>
        <dc:type
           rdf:resource="http://purl.org/dc/dcmitype/StillImage" />
        <dc:title />
      </cc:Work>
    </rdf:RDF>
  </metadata>
  <g
     inkscape:label="Calque 1"
     inkscape:groupmode="layer"
     id="layer1"
     transform="translate(-90.640847,-78.626862)">
    <path
       d="m 91.140847,347.48452 0,-60.51932 492.004023,0 0,60.51932 z"
       id="path3406"
       inkscape:connector-curvature="0"
       style="fill:#000000;fill-opacity:1;fill-rule:evenodd;stroke:#000000;stroke-width:1;stroke-linejoin:round;stroke-miterlimit:4;stroke-opacity:1;stroke-dasharray:none"
       sodipodi:nodetypes="ccccc" />
    <path
       d="m 323.03676,276.45464 -21.30888,0 -14.75231,25.27752 -15.57187,-25.27752 -21.30889,0 24.58719,40.7702 -25.40675,40.7702 20.48931,0 17.21101,-26.90833 16.39148,26.90833 21.30888,0 -26.22631,-40.7702 24.58714,-40.7702 z"
       id="path3428"
       inkscape:connector-curvature="0"
       style="fill:#0fa5ff;fill-opacity:1;fill-rule:evenodd;stroke:#000000;stroke-width:0.99999219;stroke-linejoin:round;stroke-opacity:1" />
    <g
       transform="matrix(0.03543307,0,0,0.03543307,-138.48067,74.679171)"
       style="fill-rule:evenodd;stroke-width:28.22200012;stroke-linejoin:round"
       id="g3877">
      <path
         d="m 6814.9327,6847.4689 c 0,-109.0665 16.3113,-200.6049 48.9342,-274.6154 24.3452,-54.5327 57.5765,-103.4668 99.6941,-146.8024 42.1172,-43.3338 88.2516,-75.4696 138.4033,-96.4076 66.7058,-28.2395 143.637,-42.3598 230.7939,-42.3609 157.757,0 283.9875,48.9352 378.6918,146.8024 94.7023,97.8691 142.0539,233.9595 142.055,408.2714 0,172.8523 -46.9875,308.0905 -140.9595,405.7151 -93.9739,97.6249 -219.5957,146.4373 -376.8659,146.4373 -159.219,0 -285.8146,-48.5689 -379.7873,-145.7069 -93.9732,-97.1377 -140.9596,-230.9152 -140.9596,-401.333 z m 222.7599,-7.3036 c -3e-4,121.2403 27.9968,213.1438 83.9914,275.711 55.9939,62.5678 127.0822,93.8515 213.2652,93.8513 86.1819,2e-4 156.905,-31.0401 212.1697,-93.1209 55.2631,-62.0803 82.895,-155.2011 82.8959,-279.3628 -9e-4,-122.6999 -26.9025,-214.2383 -80.7048,-274.6155 -53.804,-60.3755 -125.2575,-90.5637 -214.3608,-90.5646 -89.1044,9e-4 -160.9231,30.5542 -215.4562,91.6602 -54.5339,61.1075 -81.8007,153.2546 -81.8004,276.4413 z"
         style="font-size:1495.77783203px;font-style:normal;font-variant:normal;font-weight:bold;font-stretch:normal;text-align:start;line-height:125%;letter-spacing:0px;word-spacing:0px;writing-mode:lr-tb;text-anchor:start;fill:#ffffff;fill-opacity:1;stroke:#ffffff;stroke-width:28.22222328;stroke-miterlimit:4;stroke-opacity:1;font-family:Sans;-inkscape-font-specification:Sans Bold"
         id="path4098"
         inkscape:connector-curvature="0" />
      <path
         d="m 8021.4879,7376.2498 0,-1070.7082 346.9211,0 c 131.4643,0 217.1598,5.3571 257.0868,16.0679 61.3495,16.069 112.7181,51.0045 154.106,104.8067 41.3862,53.8041 62.0797,123.31 62.0806,208.5179 -9e-4,65.7331 -11.9301,120.997 -35.7876,165.7918 -23.8593,44.7959 -54.1692,79.9749 -90.9299,105.537 -36.7622,25.5631 -74.1323,42.4831 -112.1103,50.7601 -51.6127,10.2254 -126.3529,15.3379 -224.2206,15.3375 l -140.9595,0 0,403.8893 z m 216.1866,-889.5788 0,303.8298 118.3184,0 c 85.2081,6e-4 142.1762,-5.5988 170.9043,-16.7983 28.7268,-11.1982 51.2463,-28.7268 67.5583,-52.5859 16.3107,-23.8577 24.4664,-51.6114 24.4671,-83.2611 -7e-4,-38.9517 -11.443,-71.0876 -34.327,-96.4075 -22.8852,-25.3183 -51.8562,-41.1428 -86.9128,-47.4734 -25.8067,-4.8682 -77.6622,-7.3027 -155.5668,-7.3036 z"
         style="font-size:1495.77783203px;font-style:normal;font-variant:normal;font-weight:bold;font-stretch:normal;text-align:start;line-height:125%;letter-spacing:0px;word-spacing:0px;writing-mode:lr-tb;text-anchor:start;fill:#ffffff;fill-opacity:1;stroke:#ffffff;stroke-width:28.22222328;stroke-miterlimit:4;stroke-opacity:1;font-family:Sans;-inkscape-font-specification:Sans Bold"
         id="path4100"
         inkscape:connector-curvature="0" />
      <path
         d="m 9020.6208,7376.2498 0,-1070.7082 793.9016,0 0,181.1294 -577.715,0 0,237.3671 537.5452,0 0,180.3989 -537.5452,0 0,291.4138 598.1651,0 0,180.399 z"
         style="font-size:1495.77783203px;font-style:normal;font-variant:normal;font-weight:bold;font-stretch:normal;text-align:start;line-height:125%;letter-spacing:0px;word-spacing:0px;writing-mode:lr-tb;text-anchor:start;fill:#ffffff;fill-opacity:1;stroke:#ffffff;stroke-width:28.22222328;stroke-miterlimit:4;stroke-opacity:1;font-family:Sans;-inkscape-font-specification:Sans Bold"
         id="path4102"
         inkscape:connector-curvature="0" />
      <path
         d="m 10021.945,7376.2498 0,-1070.7082 210.343,0 438.217,715.0227 0,-715.0227 200.849,0 0,1070.7082 -216.917,0 -431.643,-698.2244 0,698.2244 z"
         style="font-size:1495.77783203px;font-style:normal;font-variant:normal;font-weight:bold;font-stretch:normal;text-align:start;line-height:125%;letter-spacing:0px;word-spacing:0px;writing-mode:lr-tb;text-anchor:start;fill:#ffffff;fill-opacity:1;stroke:#ffffff;stroke-width:28.22222328;stroke-miterlimit:4;stroke-opacity:1;font-family:Sans;-inkscape-font-specification:Sans Bold"
         id="path4104"
         inkscape:connector-curvature="0" />
    </g>
    <g
       transform="matrix(0.03543307,0,0,0.03543307,-138.48067,74.679171)"
       style="fill-rule:evenodd;stroke-width:28.22200012;stroke-linejoin:round"
       id="g3889">
      <path
         d="m 13822.843,6932.9198 128.26,0 0,127.58 -128.26,0 z m 151.186,0 128.261,0 0,127.58 -128.261,0 z m -909.284,150.3845 128.259,0 0,127.5801 -128.259,0 z m 151.186,0 128.26,0 0,127.5801 -128.26,0 z m 606.912,0 128.26,0 0,127.5801 -128.26,0 z m 151.186,0 128.261,0 0,127.5801 -128.261,0 z m -758.098,150.315 128.26,0 0,127.5801 -128.26,0 z m 151.117,0 128.26,0 0,127.5801 -128.26,0 z m 151.186,0 128.26,0 0,127.5801 -128.26,0 z m 153.493,0 128.26,0 0,127.5801 -128.26,0 z m 151.116,0 128.26,0 0,127.5801 -128.26,0 z m -606.912,-904.4626 128.26,0 0,127.58 -128.26,0 z m 151.117,0 128.26,0 0,127.58 -128.26,0 z m 151.186,0 128.26,0 0,127.58 -128.26,0 z m 153.493,0 128.26,0 0,127.58 -128.26,0 z m 151.116,0 128.26,0 0,127.58 -128.26,0 z m -758.098,150.3846 128.259,0 0,127.5801 -128.259,0 z m 151.186,0 128.26,0 0,127.5801 -128.26,0 z m 606.912,0 128.26,0 0,127.5801 -128.26,0 z m 151.186,0 128.261,0 0,127.5801 -128.261,0 z m -909.284,150.3846 128.259,0 0,127.58 -128.259,0 z m 151.186,0 128.26,0 0,127.58 -128.26,0 z m 0,150.3845 128.26,0 0,127.58 -128.26,0 z m 151.117,0 128.26,0 0,127.58 -128.26,0 z m 151.186,0 128.26,0 0,127.58 -128.26,0 z m 153.493,0 128.26,0 0,127.58 -128.26,0 z m 151.116,0 128.26,0 0,127.58 -128.26,0 z"
         style="font-size:2284.29052734px;font-style:normal;font-variant:normal;font-weight:normal;font-stretch:normal;text-align:start;line-height:125%;letter-spacing:0px;word-spacing:0px;writing-mode:lr-tb;text-anchor:start;fill:#ffffff;fill-opacity:1;stroke:#000000;stroke-width:5.64444447;stroke-miterlimit:4;stroke-opacity:1;stroke-dasharray:none;font-family:Arcade;-inkscape-font-specification:Arcade"
         id="path4132"
         inkscape:connector-curvature="0" />
      <path
         d="m 14254.664,6932.9198 128.261,0 0,127.58 -128.261,0 z m 151.187,0 128.26,0 0,127.58 -128.26,0 z m -151.187,150.3845 128.261,0 0,127.5801 -128.261,0 z m 151.187,0 128.26,0 0,127.5801 -128.26,0 z m -151.187,150.315 128.261,0 0,127.5801 -128.261,0 z m 151.187,0 128.26,0 0,127.5801 -128.26,0 z m 151.116,0 128.261,0 0,127.5801 -128.261,0 z m 151.187,0 128.26,0 0,127.5801 -128.26,0 z m 153.492,0 128.261,0 0,127.5801 -128.261,0 z m 151.117,0 128.26,0 0,127.5801 -128.26,0 z m 151.187,0 128.259,0 0,127.5801 -128.259,0 z m -909.286,-904.4626 128.261,0 0,127.58 -128.261,0 z m 151.187,0 128.26,0 0,127.58 -128.26,0 z m 151.116,0 128.261,0 0,127.58 -128.261,0 z m 151.187,0 128.26,0 0,127.58 -128.26,0 z m 153.492,0 128.261,0 0,127.58 -128.261,0 z m 151.117,0 128.26,0 0,127.58 -128.26,0 z m 151.187,0 128.259,0 0,127.58 -128.259,0 z m -909.286,150.3846 128.261,0 0,127.5801 -128.261,0 z m 151.187,0 128.26,0 0,127.5801 -128.26,0 z m -151.187,150.3846 128.261,0 0,127.58 -128.261,0 z m 151.187,0 128.26,0 0,127.58 -128.26,0 z m -151.187,150.3845 128.261,0 0,127.58 -128.261,0 z m 151.187,0 128.26,0 0,127.58 -128.26,0 z m 151.116,0 128.261,0 0,127.58 -128.261,0 z m 151.187,0 128.26,0 0,127.58 -128.26,0 z m 153.492,0 128.261,0 0,127.58 -128.261,0 z m 151.117,0 128.26,0 0,127.58 -128.26,0 z"
         style="font-size:2284.29052734px;font-style:normal;font-variant:normal;font-weight:normal;font-stretch:normal;text-align:start;line-height:125%;letter-spacing:0px;word-spacing:0px;writing-mode:lr-tb;text-anchor:start;fill:#ffffff;fill-opacity:1;stroke:#000000;stroke-width:5.64444447;stroke-miterlimit:4;stroke-opacity:1;stroke-dasharray:none;font-family:Arcade;-inkscape-font-specification:Arcade"
         id="path4134"
         inkscape:connector-curvature="0" />
      <path
         d="m 15444.584,6932.9198 128.26,0 0,127.58 -128.26,0 z m 151.186,0 128.261,0 0,127.58 -128.261,0 z m 455.797,0 128.259,0 0,127.58 -128.259,0 z m 151.116,0 128.26,0 0,127.58 -128.26,0 z m 151.186,0 128.26,0 0,127.58 -128.26,0 z m -909.285,150.3845 128.26,0 0,127.5801 -128.26,0 z m 151.186,0 128.261,0 0,127.5801 -128.261,0 z m 606.913,0 128.26,0 0,127.5801 -128.26,0 z m 151.186,0 128.26,0 0,127.5801 -128.26,0 z m -909.285,150.315 128.26,0 0,127.5801 -128.26,0 z m 151.186,0 128.261,0 0,127.5801 -128.261,0 z m 606.913,0 128.26,0 0,127.5801 -128.26,0 z m 151.186,0 128.26,0 0,127.5801 -128.26,0 z m -909.285,-904.4626 128.26,0 0,127.58 -128.26,0 z m 151.186,0 128.261,0 0,127.58 -128.261,0 z m 606.913,0 128.26,0 0,127.58 -128.26,0 z m 151.186,0 128.26,0 0,127.58 -128.26,0 z m -909.285,150.3846 128.26,0 0,127.5801 -128.26,0 z m 151.186,0 128.261,0 0,127.5801 -128.261,0 z m 151.117,0 128.26,0 0,127.5801 -128.26,0 z m 455.796,0 128.26,0 0,127.5801 -128.26,0 z m 151.186,0 128.26,0 0,127.5801 -128.26,0 z m -909.285,150.3846 128.26,0 0,127.58 -128.26,0 z m 151.186,0 128.261,0 0,127.58 -128.261,0 z m 151.117,0 128.26,0 0,127.58 -128.26,0 z m 151.186,0 128.261,0 0,127.58 -128.261,0 z m 304.61,0 128.26,0 0,127.58 -128.26,0 z m 151.186,0 128.26,0 0,127.58 -128.26,0 z m -909.285,150.3845 128.26,0 0,127.58 -128.26,0 z m 151.186,0 128.261,0 0,127.58 -128.261,0 z m 302.303,0 128.261,0 0,127.58 -128.261,0 z m 153.494,0 128.259,0 0,127.58 -128.259,0 z m 151.116,0 128.26,0 0,127.58 -128.26,0 z m 151.186,0 128.26,0 0,127.58 -128.26,0 z"
         style="font-size:2284.29052734px;font-style:normal;font-variant:normal;font-weight:normal;font-stretch:normal;text-align:start;line-height:125%;letter-spacing:0px;word-spacing:0px;writing-mode:lr-tb;text-anchor:start;fill:#ffffff;fill-opacity:1;stroke:#000000;stroke-width:5.64444447;stroke-miterlimit:4;stroke-opacity:1;stroke-dasharray:none;font-family:Arcade;-inkscape-font-specification:Arcade"
         id="path4136"
         inkscape:connector-curvature="0" />
      <path
         d="m 17392.602,6932.9198 128.261,0 0,127.58 -128.261,0 z m 151.187,0 128.26,0 0,127.58 -128.26,0 z m -909.286,150.3845 128.261,0 0,127.5801 -128.261,0 z m 151.187,0 128.26,0 0,127.5801 -128.26,0 z m 606.912,0 128.261,0 0,127.5801 -128.261,0 z m 151.187,0 128.26,0 0,127.5801 -128.26,0 z m -758.099,150.315 128.26,0 0,127.5801 -128.26,0 z m 151.117,0 128.26,0 0,127.5801 -128.26,0 z m 151.187,0 128.259,0 0,127.5801 -128.259,0 z m 153.492,0 128.261,0 0,127.5801 -128.261,0 z m 151.116,0 128.261,0 0,127.5801 -128.261,0 z m -606.912,-904.4626 128.26,0 0,127.58 -128.26,0 z m 151.117,0 128.26,0 0,127.58 -128.26,0 z m 151.187,0 128.259,0 0,127.58 -128.259,0 z m 153.492,0 128.261,0 0,127.58 -128.261,0 z m 151.116,0 128.261,0 0,127.58 -128.261,0 z m -758.099,150.3846 128.261,0 0,127.5801 -128.261,0 z m 151.187,0 128.26,0 0,127.5801 -128.26,0 z m 606.912,0 128.261,0 0,127.5801 -128.261,0 z m 151.187,0 128.26,0 0,127.5801 -128.26,0 z m -909.286,150.3846 128.261,0 0,127.58 -128.261,0 z m 151.187,0 128.26,0 0,127.58 -128.26,0 z m 0,150.3845 128.26,0 0,127.58 -128.26,0 z m 151.117,0 128.26,0 0,127.58 -128.26,0 z m 151.187,0 128.259,0 0,127.58 -128.259,0 z m 153.492,0 128.261,0 0,127.58 -128.261,0 z m 151.116,0 128.261,0 0,127.58 -128.261,0 z"
         style="font-size:2284.29052734px;font-style:normal;font-variant:normal;font-weight:normal;font-stretch:normal;text-align:start;line-height:125%;letter-spacing:0px;word-spacing:0px;writing-mode:lr-tb;text-anchor:start;fill:#ffffff;fill-opacity:1;stroke:#000000;stroke-width:5.64444447;stroke-miterlimit:4;stroke-opacity:1;stroke-dasharray:none;font-family:Arcade;-inkscape-font-specification:Arcade"
         id="path4138"
         inkscape:connector-curvature="0" />
      <path
         d="m 17824.424,6932.9198 128.26,0 0,127.58 -128.26,0 z m 151.186,0 128.26,0 0,127.58 -128.26,0 z m 606.912,0 128.26,0 0,127.58 -128.26,0 z m 151.186,0 128.261,0 0,127.58 -128.261,0 z m -909.284,150.3845 128.26,0 0,127.5801 -128.26,0 z m 151.186,0 128.26,0 0,127.5801 -128.26,0 z m 606.912,0 128.26,0 0,127.5801 -128.26,0 z m 151.186,0 128.261,0 0,127.5801 -128.261,0 z m -758.098,150.315 128.26,0 0,127.5801 -128.26,0 z m 151.117,0 128.26,0 0,127.5801 -128.26,0 z m 151.186,0 128.26,0 0,127.5801 -128.26,0 z m 153.493,0 128.26,0 0,127.5801 -128.26,0 z m 151.116,0 128.26,0 0,127.5801 -128.26,0 z m -606.912,-904.4626 128.26,0 0,127.58 -128.26,0 z m 151.117,0 128.26,0 0,127.58 -128.26,0 z m 151.186,0 128.26,0 0,127.58 -128.26,0 z m 153.493,0 128.26,0 0,127.58 -128.26,0 z m 151.116,0 128.26,0 0,127.58 -128.26,0 z m -758.098,150.3846 128.26,0 0,127.5801 -128.26,0 z m 151.186,0 128.26,0 0,127.5801 -128.26,0 z m 606.912,0 128.26,0 0,127.5801 -128.26,0 z m 151.186,0 128.261,0 0,127.5801 -128.261,0 z m -909.284,150.3846 128.26,0 0,127.58 -128.26,0 z m 151.186,0 128.26,0 0,127.58 -128.26,0 z m 606.912,0 128.26,0 0,127.58 -128.26,0 z m 151.186,0 128.261,0 0,127.58 -128.261,0 z m -909.284,150.3845 128.26,0 0,127.58 -128.26,0 z m 151.186,0 128.26,0 0,127.58 -128.26,0 z m 606.912,0 128.26,0 0,127.58 -128.26,0 z m 151.186,0 128.261,0 0,127.58 -128.261,0 z"
         style="font-size:2284.29052734px;font-style:normal;font-variant:normal;font-weight:normal;font-stretch:normal;text-align:start;line-height:125%;letter-spacing:0px;word-spacing:0px;writing-mode:lr-tb;text-anchor:start;fill:#ffffff;fill-opacity:1;stroke:#000000;stroke-width:5.64444447;stroke-miterlimit:4;stroke-opacity:1;stroke-dasharray:none;font-family:Arcade;-inkscape-font-specification:Arcade"
         id="path4140"
         inkscape:connector-curvature="0" />
      <path
         d="m 19014.343,6932.9198 128.261,0 0,127.58 -128.261,0 z m 151.187,0 128.26,0 0,127.58 -128.26,0 z m 302.303,0 128.26,0 0,127.58 -128.26,0 z m 153.492,0 128.261,0 0,127.58 -128.261,0 z m -606.982,150.3845 128.261,0 0,127.5801 -128.261,0 z m 151.187,0 128.26,0 0,127.5801 -128.26,0 z m 455.795,0 128.261,0 0,127.5801 -128.261,0 z m 151.117,0 128.26,0 0,127.5801 -128.26,0 z m -758.099,150.315 128.261,0 0,127.5801 -128.261,0 z m 151.187,0 128.26,0 0,127.5801 -128.26,0 z m 606.912,0 128.26,0 0,127.5801 -128.26,0 z m 151.187,0 128.259,0 0,127.5801 -128.259,0 z m -909.286,-904.4626 128.261,0 0,127.58 -128.261,0 z m 151.187,0 128.26,0 0,127.58 -128.26,0 z m 151.116,0 128.261,0 0,127.58 -128.261,0 z m 151.187,0 128.26,0 0,127.58 -128.26,0 z m 153.492,0 128.261,0 0,127.58 -128.261,0 z m 151.117,0 128.26,0 0,127.58 -128.26,0 z m -758.099,150.3846 128.261,0 0,127.5801 -128.261,0 z m 151.187,0 128.26,0 0,127.5801 -128.26,0 z m 606.912,0 128.26,0 0,127.5801 -128.26,0 z m 151.187,0 128.259,0 0,127.5801 -128.259,0 z m -909.286,150.3846 128.261,0 0,127.58 -128.261,0 z m 151.187,0 128.26,0 0,127.58 -128.26,0 z m 606.912,0 128.26,0 0,127.58 -128.26,0 z m 151.187,0 128.259,0 0,127.58 -128.259,0 z m -909.286,150.3845 128.261,0 0,127.58 -128.261,0 z m 151.187,0 128.26,0 0,127.58 -128.26,0 z m 151.116,0 128.261,0 0,127.58 -128.261,0 z m 151.187,0 128.26,0 0,127.58 -128.26,0 z m 153.492,0 128.261,0 0,127.58 -128.261,0 z m 151.117,0 128.26,0 0,127.58 -128.26,0 z"
         style="font-size:2284.29052734px;font-style:normal;font-variant:normal;font-weight:normal;font-stretch:normal;text-align:start;line-height:125%;letter-spacing:0px;word-spacing:0px;writing-mode:lr-tb;text-anchor:start;fill:#ffffff;fill-opacity:1;stroke:#000000;stroke-width:5.64444447;stroke-miterlimit:4;stroke-opacity:1;stroke-dasharray:none;font-family:Arcade;-inkscape-font-specification:Arcade"
         id="path4142"
         inkscape:connector-curvature="0" />
    </g>
    <g
       transform="matrix(0.03543307,0,0,0.03543307,-138.48067,74.679171)"
       style="fill-rule:evenodd;stroke-width:28.22200012;stroke-linejoin:round"
       id="g3909">
      <path
         d="m 14732.072,8460.7185 -375.072,0 c -51.618,0 -87.155,-5.0328 -106.611,-15.0986 -21.441,-10.7204 -32.162,-30.8314 -32.162,-60.3331 0,-16.0806 2.68,-36.5189 8.041,-61.3152 l 78.439,-370.0697 c 12.07,-56.3226 30.509,-93.1997 55.315,-110.6312 24.807,-17.4303 69.381,-26.1458 133.725,-26.1464 l 375.102,0 -25.134,115.6641 -322.809,0 c -31.507,5e-4 -51.956,3.0182 -61.346,9.053 -11.396,8.0408 -20.439,27.4767 -27.129,58.3077 l -58.338,277.5446 c -4.031,16.1013 -6.046,28.172 -6.046,36.2122 0,15.4261 7.713,24.8064 23.139,28.1411 6.711,2.0256 20.786,3.0383 42.227,3.0382 l 322.81,0 z"
         style="font-size:1005.59295654px;font-style:normal;font-variant:normal;font-weight:normal;font-stretch:normal;text-align:start;line-height:125%;letter-spacing:0px;word-spacing:0px;writing-mode:lr-tb;text-anchor:start;fill:#000000;fill-opacity:1;stroke:none;font-family:Hemi Head 426;-inkscape-font-specification:Hemi Head 426"
         id="path4107"
         inkscape:connector-curvature="0" />
      <path
         d="m 15362.286,8323.9716 c -12.072,56.3028 -30.505,93.1696 -55.301,110.6005 -24.796,17.431 -69.376,26.1464 -133.739,26.1464 l -212.179,0 c -51.617,0 -87.482,-5.1965 -107.593,-15.5896 -20.111,-10.3931 -30.166,-30.3404 -30.166,-59.8421 0,-16.0806 2.68,-36.5189 8.04,-61.3152 l 44.222,-209.1712 c 12.07,-56.3228 30.509,-93.1998 55.315,-110.6311 24.807,-17.4305 69.054,-26.146 132.743,-26.1464 l 212.178,0 c 51.617,4e-4 87.65,5.197 108.1,15.5896 20.448,10.3935 30.672,30.3409 30.673,59.8421 0,16.081 -2.681,36.5296 -8.041,61.3458 z m -126.712,-46.2779 25.164,-116.6461 c 3.335,-16.0803 5.002,-28.151 5.002,-36.2121 0,-14.73 -7.703,-24.1104 -23.108,-28.1411 -6.711,-2.0046 -20.786,-3.0071 -42.227,-3.0075 l -109.618,0 c -30.853,4e-4 -50.964,3.0181 -60.333,9.0531 -11.396,8.0406 -20.449,27.4765 -27.16,58.3076 l -25.133,116.6461 c -3.356,16.1013 -5.033,28.172 -5.033,36.2122 0,15.4261 7.713,24.8064 23.139,28.1411 6.035,2.0256 19.773,3.0383 41.214,3.0382 l 109.619,0 c 31.506,1e-4 52.456,-3.5188 62.849,-10.5568 10.393,-7.0377 18.934,-25.9826 25.625,-56.8347 z"
         style="font-size:1005.59295654px;font-style:normal;font-variant:normal;font-weight:normal;font-stretch:normal;text-align:start;line-height:125%;letter-spacing:0px;word-spacing:0px;writing-mode:lr-tb;text-anchor:start;fill:#000000;fill-opacity:1;stroke:none;font-family:Hemi Head 426;-inkscape-font-specification:Hemi Head 426"
         id="path4109"
         inkscape:connector-curvature="0" />
      <path
         d="m 15950.856,8460.7185 -135.765,0 63.341,-299.6709 c 3.354,-16.0803 5.032,-28.151 5.032,-36.2121 0,-15.4052 -7.703,-24.7855 -23.108,-28.1411 -6.036,-2.0046 -19.784,-3.0071 -41.245,-3.0075 l -109.618,0 c -31.507,4e-4 -51.946,3.0181 -61.316,9.0531 -11.416,8.0406 -20.469,27.4765 -27.159,58.3076 l -63.371,299.6709 -137.759,0 102.59,-482.6956 137.76,0 -13.073,60.3331 c 26.146,-40.2216 60.67,-60.3327 103.573,-60.3331 l 143.805,0 c 51.617,4e-4 87.481,5.197 107.593,15.5896 20.11,10.3935 30.166,30.3409 30.166,59.8421 0,16.081 -2.68,36.5296 -8.04,61.3458 z"
         style="font-size:1005.59295654px;font-style:normal;font-variant:normal;font-weight:normal;font-stretch:normal;text-align:start;line-height:125%;letter-spacing:0px;word-spacing:0px;writing-mode:lr-tb;text-anchor:start;fill:#000000;fill-opacity:1;stroke:none;font-family:Hemi Head 426;-inkscape-font-specification:Hemi Head 426"
         id="path4111"
         inkscape:connector-curvature="0" />
      <path
         d="m 16387.366,8088.654 -131.745,0 -79.421,372.0645 -136.778,0 106.611,-505.8039 c 12.071,-56.3226 30.504,-93.1997 55.301,-110.6312 24.795,-17.4303 69.375,-26.1457 133.739,-26.1464 l 109.618,0 -25.133,116.6461 -57.326,0 c -49.613,5e-4 -77.099,12.7464 -82.459,38.2376 l 131.714,0 z"
         style="font-size:1005.59295654px;font-style:normal;font-variant:normal;font-weight:normal;font-stretch:normal;text-align:start;line-height:125%;letter-spacing:0px;word-spacing:0px;writing-mode:lr-tb;text-anchor:start;fill:#000000;fill-opacity:1;stroke:none;font-family:Hemi Head 426;-inkscape-font-specification:Hemi Head 426"
         id="path4113"
         inkscape:connector-curvature="0" />
      <path
         d="m 16642.723,7927.7555 -137.76,0 23.139,-110.6312 137.76,0 z m -113.639,532.963 -137.759,0 103.572,-483.6777 136.778,0 z"
         style="font-size:1005.59295654px;font-style:normal;font-variant:normal;font-weight:normal;font-stretch:normal;text-align:start;line-height:125%;letter-spacing:0px;word-spacing:0px;writing-mode:lr-tb;text-anchor:start;fill:#000000;fill-opacity:1;stroke:none;font-family:Hemi Head 426;-inkscape-font-specification:Hemi Head 426"
         id="path4115"
         inkscape:connector-curvature="0" />
      <path
         d="m 17100.684,8566.3168 c -12.051,56.9777 -30.479,94.0133 -55.285,111.1069 -24.807,17.0931 -69.054,25.6398 -132.742,25.64 l -333.858,0 24.121,-115.6333 282.578,0 c 30.831,-2e-4 51.443,-3.5191 61.836,-10.5568 10.393,-7.038 18.945,-25.9828 25.656,-56.8347 l 91.512,-426.352 -164.919,0 c -31.506,4e-4 -51.955,3.0181 -61.345,9.0531 -11.396,7.3655 -20.449,26.8014 -27.16,58.3076 l -24.12,115.6334 c -4.031,16.7764 -6.046,29.1847 -6.046,37.2249 0,14.7509 7.713,24.1313 23.139,28.1411 6.69,1.3504 20.765,2.0256 42.227,2.0254 l 115.633,0 -24.121,115.6334 -167.926,0 c -51.618,0 -87.155,-4.6953 -106.611,-14.0859 -21.441,-10.7204 -32.161,-31.1588 -32.161,-61.3151 0,-15.4259 2.68,-35.8745 8.04,-61.3459 l 44.253,-209.1712 c 12.05,-56.3023 30.478,-93.1691 55.285,-110.6005 24.806,-17.4304 69.391,-26.1459 133.754,-26.1464 l 353.959,0 z"
         style="font-size:1005.59295654px;font-style:normal;font-variant:normal;font-weight:normal;font-stretch:normal;text-align:start;line-height:125%;letter-spacing:0px;word-spacing:0px;writing-mode:lr-tb;text-anchor:start;fill:#000000;fill-opacity:1;stroke:none;font-family:Hemi Head 426;-inkscape-font-specification:Hemi Head 426"
         id="path4117"
         inkscape:connector-curvature="0" />
      <path
         d="m 17754.835,8459.7058 -137.76,0 13.073,-59.3204 c -26.147,39.547 -60.671,59.3204 -103.573,59.3204 l -143.805,0 c -51.618,0 -87.482,-5.0277 -107.593,-15.0833 -20.111,-10.0555 -30.167,-30.1614 -30.166,-60.3177 0,-15.4259 2.68,-35.8745 8.04,-61.3459 l 73.406,-345.9181 135.765,0 -63.34,299.6402 c -3.356,16.7764 -5.034,29.1847 -5.033,37.2249 -10e-4,14.7509 7.702,24.1313 23.108,28.1411 6.035,1.3504 19.783,2.0256 41.245,2.0254 l 109.618,0 c 31.507,2e-4 52.451,-3.5188 62.835,-10.5567 10.382,-7.0377 18.929,-25.9826 25.64,-56.8347 l 63.371,-299.6402 137.76,0 z"
         style="font-size:1005.59295654px;font-style:normal;font-variant:normal;font-weight:normal;font-stretch:normal;text-align:start;line-height:125%;letter-spacing:0px;word-spacing:0px;writing-mode:lr-tb;text-anchor:start;fill:#000000;fill-opacity:1;stroke:none;font-family:Hemi Head 426;-inkscape-font-specification:Hemi Head 426"
         id="path4119"
         inkscape:connector-curvature="0" />
      <path
         d="m 18289.762,8093.6869 -159.886,0 c -31.507,4e-4 -51.945,3.0181 -61.315,9.0531 -11.416,8.0406 -20.469,27.4765 -27.159,58.3076 l -63.372,299.6709 -137.759,0 102.591,-482.6956 137.759,0 -13.073,60.3331 c 26.146,-40.2216 60.67,-60.3327 103.573,-60.3331 l 143.805,0 z"
         style="font-size:1005.59295654px;font-style:normal;font-variant:normal;font-weight:normal;font-stretch:normal;text-align:start;line-height:125%;letter-spacing:0px;word-spacing:0px;writing-mode:lr-tb;text-anchor:start;fill:#000000;fill-opacity:1;stroke:none;font-family:Hemi Head 426;-inkscape-font-specification:Hemi Head 426"
         id="path4121"
         inkscape:connector-curvature="0" />
      <path
         d="m 18798.205,8460.7185 -355.984,0 c -51.618,0 -87.155,-5.0328 -106.611,-15.0986 -21.441,-10.7204 -32.161,-30.8314 -32.161,-60.3331 0,-16.0806 2.68,-36.5189 8.04,-61.3152 l 6.046,-26.1464 c 12.05,-56.3229 30.478,-93.2 55.285,-110.6312 24.806,-17.4306 69.053,-26.1461 132.742,-26.1464 l 160.898,0 -25.133,115.6334 -148.839,0 c -12.725,2e-4 -23.277,4.3579 -31.654,13.0732 -8.379,8.7156 -12.568,18.4438 -12.567,29.1846 0,17.431 10.055,26.1465 30.166,26.1464 l 207.146,0 39.22,-184.0376 c 3.354,-16.0803 5.032,-28.151 5.032,-36.2121 0,-14.73 -7.713,-24.1104 -23.138,-28.1411 -6.711,-2.0046 -20.787,-3.0071 -42.228,-3.0075 l -281.564,0 25.133,-115.664 332.845,0 c 51.617,4e-4 87.65,5.197 108.1,15.5896 20.448,10.3935 30.672,30.3409 30.673,59.8421 -10e-4,16.081 -2.681,36.5296 -8.041,61.3458 z"
         style="font-size:1005.59295654px;font-style:normal;font-variant:normal;font-weight:normal;font-stretch:normal;text-align:start;line-height:125%;letter-spacing:0px;word-spacing:0px;writing-mode:lr-tb;text-anchor:start;fill:#000000;fill-opacity:1;stroke:none;font-family:Hemi Head 426;-inkscape-font-specification:Hemi Head 426"
         id="path4123"
         inkscape:connector-curvature="0" />
      <path
         d="m 19156.858,8460.7185 -109.618,0 c -51.618,0 -87.482,-5.1965 -107.593,-15.5896 -20.111,-10.3931 -30.167,-30.3404 -30.167,-59.8421 0,-16.0806 2.68,-36.5189 8.041,-61.3152 l 106.58,-505.8346 137.79,0 -34.217,159.8859 c 6.71,4e-4 50.625,4e-4 131.745,0 l -24.121,115.664 -131.745,0 -39.22,184.0068 c -3.355,16.1013 -5.033,28.172 -5.032,36.2122 0,15.4261 7.712,24.8064 23.138,28.1411 6.036,2.0256 19.774,3.0383 41.215,3.0382 l 58.338,0 z"
         style="font-size:1005.59295654px;font-style:normal;font-variant:normal;font-weight:normal;font-stretch:normal;text-align:start;line-height:125%;letter-spacing:0px;word-spacing:0px;writing-mode:lr-tb;text-anchor:start;fill:#000000;fill-opacity:1;stroke:none;font-family:Hemi Head 426;-inkscape-font-specification:Hemi Head 426"
         id="path4125"
         inkscape:connector-curvature="0" />
      <path
         d="m 19804.964,8323.9716 c -12.072,56.3028 -30.505,93.1696 -55.301,110.6005 -24.796,17.431 -69.376,26.1464 -133.739,26.1464 l -212.179,0 c -51.617,0 -87.482,-5.1965 -107.593,-15.5896 -20.111,-10.3931 -30.166,-30.3404 -30.166,-59.8421 0,-16.0806 2.68,-36.5189 8.04,-61.3152 l 44.222,-209.1712 c 12.07,-56.3228 30.509,-93.1998 55.316,-110.6311 24.806,-17.4305 69.053,-26.146 132.742,-26.1464 l 212.178,0 c 51.617,4e-4 87.65,5.197 108.1,15.5896 20.448,10.3935 30.672,30.3409 30.673,59.8421 0,16.081 -2.681,36.5296 -8.041,61.3458 z m -126.712,-46.2779 25.164,-116.6461 c 3.335,-16.0803 5.002,-28.151 5.002,-36.2121 0,-14.73 -7.703,-24.1104 -23.108,-28.1411 -6.711,-2.0046 -20.786,-3.0071 -42.227,-3.0075 l -109.618,0 c -30.853,4e-4 -50.964,3.0181 -60.333,9.0531 -11.396,8.0406 -20.449,27.4765 -27.16,58.3076 l -25.133,116.6461 c -3.356,16.1013 -5.033,28.172 -5.033,36.2122 0,15.4261 7.713,24.8064 23.139,28.1411 6.035,2.0256 19.773,3.0383 41.214,3.0382 l 109.619,0 c 31.506,1e-4 52.456,-3.5188 62.849,-10.5568 10.393,-7.0377 18.934,-25.9826 25.625,-56.8347 z"
         style="font-size:1005.59295654px;font-style:normal;font-variant:normal;font-weight:normal;font-stretch:normal;text-align:start;line-height:125%;letter-spacing:0px;word-spacing:0px;writing-mode:lr-tb;text-anchor:start;fill:#000000;fill-opacity:1;stroke:none;font-family:Hemi Head 426;-inkscape-font-specification:Hemi Head 426"
         id="path4127"
         inkscape:connector-curvature="0" />
      <path
         d="m 20298.983,8093.6869 -159.885,0 c -31.507,4e-4 -51.946,3.0181 -61.315,9.0531 -11.417,8.0406 -20.47,27.4765 -27.16,58.3076 l -63.371,299.6709 -137.759,0 102.59,-482.6956 137.76,0 -13.073,60.3331 c 26.146,-40.2216 60.67,-60.3327 103.573,-60.3331 l 143.805,0 z"
         style="font-size:1005.59295654px;font-style:normal;font-variant:normal;font-weight:normal;font-stretch:normal;text-align:start;line-height:125%;letter-spacing:0px;word-spacing:0px;writing-mode:lr-tb;text-anchor:start;fill:#000000;fill-opacity:1;stroke:none;font-family:Hemi Head 426;-inkscape-font-specification:Hemi Head 426"
         id="path4129"
         inkscape:connector-curvature="0" />
    </g>
  </g>
</svg>
